<svg width="23" height="22" viewBox="0 0 23 22" fill="none" xmlns="http://www.w3.org/2000/svg">
  <path
    d="M21.5969 0H1.35693C0.870179 0 0.476929 0.39325 0.476929 0.88V21.12C0.476929 21.6068 0.870179 22 1.35693 22H21.5969C22.0837 22 22.4769 21.6068 22.4769 21.12V0.88C22.4769 0.39325 22.0837 0 21.5969 0ZM19.0559 6.42125H17.2987C15.9209 6.42125 15.6542 7.07575 15.6542 8.03825V10.1585H18.9432L18.5142 13.4777H15.6542V22H12.2249V13.4805H9.35668V10.1585H12.2249V7.711C12.2249 4.87025 13.9602 3.322 16.4957 3.322C17.7112 3.322 18.7534 3.41275 19.0587 3.454V6.42125H19.0559Z"
    fill="#FF3559" />
</svg>